<?xml version="1.0" standalone="no"?>
<!DOCTYPE svg PUBLIC "-//W3C//DTD SVG 20010904//EN"
 "http://www.w3.org/TR/2001/REC-SVG-20010904/DTD/svg10.dtd">
<svg version="1.0" xmlns="http://www.w3.org/2000/svg"
 width="512.000000pt" height="512.000000pt" viewBox="0 0 512.000000 512.000000"
 preserveAspectRatio="xMidYMid meet">
<metadata>
Created by potrace 1.11, written by Peter Selinger 2001-2013
</metadata>
<g transform="translate(0.000000,512.000000) scale(0.100000,-0.100000)"
fill="#000000" stroke="none">
<path d="M2379 4996 c-2 -2 -31 -6 -64 -9 -52 -5 -155 -20 -220 -31 -327 -60
-696 -223 -987 -438 -301 -222 -559 -529 -726 -864 -129 -259 -197 -481 -244
-794 -14 -94 -17 -480 -5 -575 55 -420 183 -767 408 -1100 315 -466 788 -814
1326 -974 246 -73 454 -100 733 -96 203 3 239 6 355 26 33 6 74 13 90 16 17 2
80 17 142 34 681 179 1256 647 1567 1276 72 147 79 164 133 323 50 150 82 294
109 486 13 89 11 452 -2 559 -90 726 -471 1350 -1073 1754 -253 170 -625 325
-881 365 -19 3 -44 7 -55 10 -11 2 -45 7 -75 11 -30 4 -66 10 -80 12 -31 5
-446 13 -451 9z m386 -330 c49 -4 92 -9 95 -11 3 -2 30 -6 60 -10 30 -4 105
-19 165 -35 428 -108 839 -368 1108 -700 34 -41 64 -77 67 -80 10 -9 108 -155
134 -200 25 -43 96 -187 129 -260 50 -114 110 -325 136 -480 36 -221 30 -546
-14 -748 -3 -12 -7 -32 -10 -45 -3 -12 -7 -32 -9 -44 -10 -53 -61 -207 -102
-307 -209 -510 -628 -933 -1137 -1145 -95 -39 -261 -96 -308 -105 -13 -2 -60
-11 -104 -20 -156 -31 -252 -40 -420 -39 -843 1 -1607 509 -1940 1288 -68 160
-125 359 -141 490 -2 17 -6 40 -9 52 -23 98 -23 453 0 588 67 384 183 667 389
950 28 39 61 81 73 95 12 14 31 36 43 50 175 203 425 395 671 513 184 88 412
161 575 183 27 3 52 8 55 10 4 2 56 7 115 10 60 4 110 7 111 8 5 4 184 -2 268
-8z"/>
<path d="M2251 3832 c-216 -36 -402 -133 -567 -297 -97 -96 -156 -176 -209
-283 -37 -76 -80 -207 -90 -273 -3 -24 -9 -53 -12 -64 -12 -41 -4 -261 12
-340 55 -264 202 -496 414 -655 115 -86 301 -166 451 -195 79 -14 268 -15 346
-1 148 27 197 43 305 96 207 101 370 258 477 458 45 85 97 232 107 302 3 25 8
56 10 70 2 14 7 69 10 124 16 290 205 494 480 519 l39 4 0 119 0 119 -39 1
c-129 2 -311 -64 -425 -154 -74 -59 -88 -74 -143 -147 -100 -133 -150 -270
-156 -428 l-1 -27 -412 2 -413 3 -1 520 c-1 286 -2 526 -3 533 -1 15 -67 13
-180 -6z"/>
<path d="M1813 1539 c-63 -24 -122 -79 -152 -142 -30 -63 -27 -170 6 -234 68
-130 227 -183 357 -119 170 83 207 296 75 435 -68 71 -189 96 -286 60z"/>
<path d="M2864 1539 c-59 -22 -115 -72 -146 -132 -18 -33 -23 -59 -23 -122 0
-69 4 -86 27 -125 35 -60 73 -94 132 -120 127 -57 282 -1 349 125 29 54 31
182 4 237 -64 127 -212 186 -343 137z"/>
</g>
</svg>
