<?xml version="1.0" encoding="UTF-8" standalone="no"?>
<!-- Generator: Adobe Illustrator 17.0.0, SVG Export Plug-In . SVG Version: 6.00 Build 0)  -->

<svg
   xmlns:dc="http://purl.org/dc/elements/1.1/"
   xmlns:cc="http://creativecommons.org/ns#"
   xmlns:rdf="http://www.w3.org/1999/02/22-rdf-syntax-ns#"
   xmlns:svg="http://www.w3.org/2000/svg"
   xmlns="http://www.w3.org/2000/svg"
   xmlns:sodipodi="http://sodipodi.sourceforge.net/DTD/sodipodi-0.dtd"
   xmlns:inkscape="http://www.inkscape.org/namespaces/inkscape"
   version="1.1"
   id="Capa_1"
   x="0px"
   y="0px"
   width="31.063"
   height="31.063"
   viewBox="0 0 31.063 31.063"
   enable-background="new 0 0 1280 800"
   xml:space="preserve"
   sodipodi:docname="02.svg"
   inkscape:version="0.92.2 (5c3e80d, 2017-08-06)"><metadata
     id="metadata542"><rdf:RDF><cc:Work
         rdf:about=""><dc:format>image/svg+xml</dc:format><dc:type
           rdf:resource="http://purl.org/dc/dcmitype/StillImage" /><dc:title></dc:title></cc:Work></rdf:RDF></metadata><defs
     id="defs540" /><sodipodi:namedview
     pagecolor="#ffffff"
     bordercolor="#666666"
     borderopacity="1"
     objecttolerance="10"
     gridtolerance="10"
     guidetolerance="10"
     inkscape:pageopacity="0"
     inkscape:pageshadow="2"
     inkscape:window-width="1366"
     inkscape:window-height="720"
     id="namedview538"
     showgrid="false"
     fit-margin-top="0"
     fit-margin-left="0"
     fit-margin-right="0"
     fit-margin-bottom="0"
     inkscape:zoom="1.18"
     inkscape:cx="35.772233"
     inkscape:cy="-87.853602"
     inkscape:window-x="0"
     inkscape:window-y="26"
     inkscape:window-maximized="1"
     inkscape:current-layer="Capa_1" /><g
     id="g297"
     transform="translate(-571.08698,-199.323)"><rect
       x="571.08698"
       y="199.323"
       width="31.063"
       height="31.063"
       id="rect281"
       style="fill:#9c9b9b" /><path
       stroke-miterlimit="10"
       d="m 593.494,220.767 c 0,3.709 -3.006,6.715 -6.715,6.715 -3.708,0 -6.715,-3.006 -6.715,-6.715 V 208.62 c 0,-3.709 3.006,-6.715 6.715,-6.715 3.709,0 6.715,3.006 6.715,6.715 z"
       id="path283"
       inkscape:connector-curvature="0"
       style="fill:none;stroke:#1d1d1b;stroke-miterlimit:10" /><path
       stroke-miterlimit="10"
       d="m 587.453,206.23 c 0.303,-0.303 0.795,-0.303 1.098,0 0.303,0.303 0.303,0.795 0,1.098"
       id="path285"
       inkscape:connector-curvature="0"
       style="fill:none;stroke:#1d1d1b;stroke-miterlimit:10" /><path
       stroke-miterlimit="10"
       d="m 589.011,209.496 c 0,1.233 -0.999,2.232 -2.232,2.232 -1.233,0 -2.232,-0.999 -2.232,-2.232"
       id="path287"
       inkscape:connector-curvature="0"
       style="fill:none;stroke:#1d1d1b;stroke-miterlimit:10" /><line
       stroke-miterlimit="10"
       x1="593.49402"
       y1="214.66"
       x2="580.06403"
       y2="214.66"
       id="line289"
       style="fill:none;stroke:#1d1d1b;stroke-miterlimit:10" /><polyline
       stroke-miterlimit="10"
       points="593.494,214.66 586.549,221.605 580.064,221.605  "
       id="polyline291"
       style="fill:none;stroke:#1d1d1b;stroke-miterlimit:10" /><line
       stroke-miterlimit="10"
       x1="580.06403"
       y1="214.66"
       x2="586.77899"
       y2="221.375"
       id="line293"
       style="fill:none;stroke:#1d1d1b;stroke-miterlimit:10" /><path
       stroke-miterlimit="10"
       d="m 591.279,208.733 c 0,2.485 -2.015,4.5 -4.5,4.5 v 0 c -2.485,0 -4.5,-2.015 -4.5,-4.5 v 0 c 0,-2.485 2.015,-4.5 4.5,-4.5 v 0 c 2.485,0 4.5,2.015 4.5,4.5 z"
       id="path295"
       inkscape:connector-curvature="0"
       style="fill:none;stroke:#1d1d1b;stroke-miterlimit:10" /></g></svg>