<?xml version="1.0" encoding="UTF-8" standalone="no"?>
<!-- Generator: Adobe Illustrator 17.0.0, SVG Export Plug-In . SVG Version: 6.00 Build 0)  -->

<svg
   xmlns:dc="http://purl.org/dc/elements/1.1/"
   xmlns:cc="http://creativecommons.org/ns#"
   xmlns:rdf="http://www.w3.org/1999/02/22-rdf-syntax-ns#"
   xmlns:svg="http://www.w3.org/2000/svg"
   xmlns="http://www.w3.org/2000/svg"
   xmlns:sodipodi="http://sodipodi.sourceforge.net/DTD/sodipodi-0.dtd"
   xmlns:inkscape="http://www.inkscape.org/namespaces/inkscape"
   version="1.1"
   id="Capa_1"
   x="0px"
   y="0px"
   width="31.438"
   height="31.438"
   viewBox="0 0 31.438 31.438"
   enable-background="new 0 0 1280 800"
   xml:space="preserve"
   sodipodi:docname="04.svg"
   inkscape:version="0.92.2 (5c3e80d, 2017-08-06)"><metadata
     id="metadata1084"><rdf:RDF><cc:Work
         rdf:about=""><dc:format>image/svg+xml</dc:format><dc:type
           rdf:resource="http://purl.org/dc/dcmitype/StillImage" /><dc:title></dc:title></cc:Work></rdf:RDF></metadata><defs
     id="defs1082" /><sodipodi:namedview
     pagecolor="#ffffff"
     bordercolor="#666666"
     borderopacity="1"
     objecttolerance="10"
     gridtolerance="10"
     guidetolerance="10"
     inkscape:pageopacity="0"
     inkscape:pageshadow="2"
     inkscape:window-width="1366"
     inkscape:window-height="720"
     id="namedview1080"
     showgrid="false"
     fit-margin-top="0"
     fit-margin-left="0"
     fit-margin-right="0"
     fit-margin-bottom="0"
     inkscape:zoom="1.668772"
     inkscape:cx="9.4079293"
     inkscape:cy="-20.426376"
     inkscape:window-x="0"
     inkscape:window-y="26"
     inkscape:window-maximized="1"
     inkscape:current-layer="Capa_1" /><rect
     x="0"
     y="0"
     width="31.438"
     height="31.438"
     id="rect847"
     style="fill:#9c9b9b" /><path
     stroke-miterlimit="10"
     d="m 29.641981,11.416994 c 0,1.655 -1.342,2.997 -2.997,2.997 -1.655,0 -2.997,1.342 -2.997,2.997"
     id="path849"
     inkscape:connector-curvature="0"
     style="fill:none;stroke:#1d1d1b;stroke-miterlimit:10" /><path
     stroke-miterlimit="10"
     d="m 26.645981,4.4599941 c 0,1.655 -1.342,2.997 -2.997,2.997 -1.655,0 -2.997,1.342 -2.997,2.9969999"
     id="path851"
     inkscape:connector-curvature="0"
     style="fill:none;stroke:#1d1d1b;stroke-miterlimit:10" /><circle
     stroke-miterlimit="10"
     cx="13.600952"
     cy="17.50499"
     r="10.048"
     id="circle853"
     style="fill:none;stroke:#1d1d1b;stroke-miterlimit:10" /><circle
     stroke-miterlimit="10"
     cx="13.600952"
     cy="17.50499"
     r="5.2360001"
     id="circle855"
     style="fill:none;stroke:#1d1d1b;stroke-width:0.95380002;stroke-miterlimit:10" /><path
     stroke-miterlimit="10"
     d="m 13.331981,13.232994 c 0,0.471 -0.444,0.852 -0.991,0.852 v 0 c -0.547,0 -0.991,-0.382 -0.991,-0.852 V 6.8779941 c 0,-0.471 0.444,-0.852 0.991,-0.852 v 0 c 0.547,0 0.991,0.382 0.991,0.852 z"
     id="path857"
     inkscape:connector-curvature="0"
     style="fill:#ffffff;stroke:#1d1d1b;stroke-miterlimit:10" /><path
     stroke-miterlimit="10"
     d="m 15.314981,13.232994 c 0,0.471 -0.444,0.852 -0.991,0.852 v 0 c -0.547,0 -0.991,-0.382 -0.991,-0.852 V 6.8779941 c 0,-0.471 0.444,-0.852 0.991,-0.852 v 0 c 0.547,0 0.991,0.382 0.991,0.852 z"
     id="path859"
     inkscape:connector-curvature="0"
     style="fill:#ffffff;stroke:#1d1d1b;stroke-miterlimit:10" /><path
     stroke-miterlimit="10"
     d="m 13.331981,22.009994 c 0,-0.471 -0.444,-0.852 -0.991,-0.852 v 0 c -0.547,0 -0.991,0.382 -0.991,0.852 v 6.355 c 0,0.471 0.444,0.852 0.991,0.852 v 0 c 0.547,0 0.991,-0.382 0.991,-0.852 z"
     id="path861"
     inkscape:connector-curvature="0"
     style="fill:#ffffff;stroke:#1d1d1b;stroke-miterlimit:10" /><path
     stroke-miterlimit="10"
     d="m 15.314981,22.009994 c 0,-0.471 -0.444,-0.852 -0.991,-0.852 v 0 c -0.547,0 -0.991,0.382 -0.991,0.852 v 6.355 c 0,0.471 0.444,0.852 0.991,0.852 v 0 c 0.547,0 0.991,-0.382 0.991,-0.852 z"
     id="path863"
     inkscape:connector-curvature="0"
     style="fill:#ffffff;stroke:#1d1d1b;stroke-miterlimit:10" /><path
     stroke-miterlimit="10"
     d="m 9.0029814,17.492994 c 0.471,0 0.852,0.444 0.852,0.991 v 0 c 0,0.547 -0.382,0.991 -0.852,0.991 h -6.355 c -0.471,0 -0.852,-0.444 -0.852,-0.991 v 0 c 0,-0.547 0.382,-0.991 0.852,-0.991 z"
     id="path865"
     inkscape:connector-curvature="0"
     style="fill:#ffffff;stroke:#1d1d1b;stroke-miterlimit:10" /><path
     stroke-miterlimit="10"
     d="m 9.0029814,15.510994 c 0.471,0 0.852,0.444 0.852,0.991 v 0 c 0,0.547 -0.382,0.991 -0.852,0.991 h -6.355 c -0.471,0 -0.852,-0.444 -0.852,-0.991 v 0 c 0,-0.547 0.382,-0.991 0.852,-0.991 z"
     id="path867"
     inkscape:connector-curvature="0"
     style="fill:#ffffff;stroke:#1d1d1b;stroke-miterlimit:10" /><path
     stroke-miterlimit="10"
     d="m 18.212981,17.492994 c -0.471,0 -0.852,0.444 -0.852,0.991 v 0 c 0,0.547 0.382,0.991 0.852,0.991 h 6.355 c 0.471,0 0.852,-0.444 0.852,-0.991 v 0 c 0,-0.547 -0.382,-0.991 -0.852,-0.991 z"
     id="path869"
     inkscape:connector-curvature="0"
     style="fill:#ffffff;stroke:#1d1d1b;stroke-miterlimit:10" /><path
     stroke-miterlimit="10"
     d="m 18.212981,15.510994 c -0.471,0 -0.852,0.444 -0.852,0.991 v 0 c 0,0.547 0.382,0.991 0.852,0.991 h 6.355 c 0.471,0 0.852,-0.444 0.852,-0.991 v 0 c 0,-0.547 -0.382,-0.991 -0.852,-0.991 z"
     id="path871"
     inkscape:connector-curvature="0"
     style="fill:#ffffff;stroke:#1d1d1b;stroke-miterlimit:10" /></svg>