<?xml version="1.0" encoding="UTF-8" standalone="no"?>
<!-- Generator: Adobe Illustrator 17.0.0, SVG Export Plug-In . SVG Version: 6.00 Build 0)  -->

<svg
   xmlns:dc="http://purl.org/dc/elements/1.1/"
   xmlns:cc="http://creativecommons.org/ns#"
   xmlns:rdf="http://www.w3.org/1999/02/22-rdf-syntax-ns#"
   xmlns:svg="http://www.w3.org/2000/svg"
   xmlns="http://www.w3.org/2000/svg"
   xmlns:sodipodi="http://sodipodi.sourceforge.net/DTD/sodipodi-0.dtd"
   xmlns:inkscape="http://www.inkscape.org/namespaces/inkscape"
   version="1.1"
   id="Capa_1"
   x="0px"
   y="0px"
   width="31.438"
   height="31.438"
   viewBox="0 0 31.438 31.438"
   enable-background="new 0 0 1280 800"
   xml:space="preserve"
   sodipodi:docname="03.svg"
   inkscape:version="0.92.2 (5c3e80d, 2017-08-06)"><metadata
     id="metadata813"><rdf:RDF><cc:Work
         rdf:about=""><dc:format>image/svg+xml</dc:format><dc:type
           rdf:resource="http://purl.org/dc/dcmitype/StillImage" /><dc:title></dc:title></cc:Work></rdf:RDF></metadata><defs
     id="defs811" /><sodipodi:namedview
     pagecolor="#ffffff"
     bordercolor="#666666"
     borderopacity="1"
     objecttolerance="10"
     gridtolerance="10"
     guidetolerance="10"
     inkscape:pageopacity="0"
     inkscape:pageshadow="2"
     inkscape:window-width="1366"
     inkscape:window-height="720"
     id="namedview809"
     showgrid="false"
     fit-margin-top="0"
     fit-margin-left="0"
     fit-margin-right="0"
     fit-margin-bottom="0"
     inkscape:zoom="1.668772"
     inkscape:cx="-5.9913536"
     inkscape:cy="-35.420749"
     inkscape:window-x="0"
     inkscape:window-y="26"
     inkscape:window-maximized="1"
     inkscape:current-layer="Capa_1" /><rect
     x="0"
     y="0"
     width="31.438"
     height="31.438"
     id="rect602"
     style="fill:#9c9b9b" /><path
     stroke-miterlimit="10"
     d="m 29.642,11.416994 c 0,1.655 -1.342,2.997 -2.997,2.997 -1.655,0 -2.997,1.342 -2.997,2.997"
     id="path604"
     inkscape:connector-curvature="0"
     style="fill:none;stroke:#1d1d1b;stroke-miterlimit:10" /><path
     stroke-miterlimit="10"
     d="m 23.968,2.3829941 c 0,1.655 -1.342,2.997 -2.997,2.997 -1.655,0 -2.997,1.342 -2.997,2.997"
     id="path606"
     inkscape:connector-curvature="0"
     style="fill:none;stroke:#1d1d1b;stroke-miterlimit:10" /><circle
     stroke-miterlimit="10"
     cx="13.601013"
     cy="17.50499"
     r="10.048"
     id="circle608"
     style="fill:none;stroke:#1d1d1b;stroke-miterlimit:10" /><circle
     stroke-miterlimit="10"
     cx="13.601013"
     cy="17.50499"
     r="5.2360001"
     id="circle610"
     style="fill:none;stroke:#1d1d1b;stroke-width:0.95380002;stroke-miterlimit:10" /><g
     id="g658"
     transform="translate(-531.375,-236.78101)"><path
       d="m 539.74,254.285 c 0,-0.963 0.279,-1.854 0.732,-2.628 l -3.469,-3.469 c -1.296,1.692 -2.075,3.802 -2.075,6.098 0,2.297 0.779,4.407 2.076,6.099 l 3.469,-3.469 c -0.454,-0.776 -0.733,-1.667 -0.733,-2.631 z"
       id="path654"
       inkscape:connector-curvature="0"
       style="fill:#1d1d1b" /><path
       d="m 550.212,254.285 c 0,0.964 -0.279,1.854 -0.733,2.63 l 3.469,3.469 c 1.297,-1.692 2.076,-3.802 2.076,-6.099 0,-2.296 -0.779,-4.405 -2.075,-6.098 l -3.469,3.469 c 0.453,0.776 0.732,1.666 0.732,2.629 z"
       id="path656"
       inkscape:connector-curvature="0"
       style="fill:#1d1d1b" /></g></svg>