<?xml version="1.0" encoding="UTF-8" standalone="no"?>
<!-- Generator: Adobe Illustrator 17.0.0, SVG Export Plug-In . SVG Version: 6.00 Build 0)  -->

<svg
   xmlns:dc="http://purl.org/dc/elements/1.1/"
   xmlns:cc="http://creativecommons.org/ns#"
   xmlns:rdf="http://www.w3.org/1999/02/22-rdf-syntax-ns#"
   xmlns:svg="http://www.w3.org/2000/svg"
   xmlns="http://www.w3.org/2000/svg"
   xmlns:sodipodi="http://sodipodi.sourceforge.net/DTD/sodipodi-0.dtd"
   xmlns:inkscape="http://www.inkscape.org/namespaces/inkscape"
   version="1.1"
   id="Capa_1"
   x="0px"
   y="0px"
   width="31.438"
   height="31.438"
   viewBox="0 0 31.438 31.438"
   enable-background="new 0 0 1280 800"
   xml:space="preserve"
   sodipodi:docname="09.svg"
   inkscape:version="0.92.2 (5c3e80d, 2017-08-06)"><metadata
     id="metadata2439"><rdf:RDF><cc:Work
         rdf:about=""><dc:format>image/svg+xml</dc:format><dc:type
           rdf:resource="http://purl.org/dc/dcmitype/StillImage" /><dc:title></dc:title></cc:Work></rdf:RDF></metadata><defs
     id="defs2437" /><sodipodi:namedview
     pagecolor="#ffffff"
     bordercolor="#666666"
     borderopacity="1"
     objecttolerance="10"
     gridtolerance="10"
     guidetolerance="10"
     inkscape:pageopacity="0"
     inkscape:pageshadow="2"
     inkscape:window-width="1366"
     inkscape:window-height="720"
     id="namedview2435"
     showgrid="false"
     fit-margin-top="0"
     fit-margin-left="0"
     fit-margin-right="0"
     fit-margin-bottom="0"
     inkscape:zoom="1.668772"
     inkscape:cx="84.787391"
     inkscape:cy="119.62511"
     inkscape:window-x="0"
     inkscape:window-y="26"
     inkscape:window-maximized="1"
     inkscape:current-layer="Capa_1" /><rect
     x="0"
     y="0"
     width="31.438"
     height="31.438"
     id="rect2170"
     style="fill:#9c9b9b" /><g
     id="g2340"
     transform="translate(-571.19501,-342.72)"><rect
       x="578.55603"
       y="352.616"
       stroke-miterlimit="10"
       width="17.624001"
       height="17.624001"
       id="rect2324"
       style="fill:none;stroke:#000000;stroke-width:0.9429;stroke-miterlimit:10" /><rect
       x="586.07001"
       y="362.258"
       stroke-miterlimit="10"
       width="7.0029998"
       height="7.9920001"
       id="rect2326"
       style="fill:none;stroke:#000000;stroke-width:0.9429;stroke-miterlimit:10" /><line
       stroke-miterlimit="10"
       x1="582.49597"
       y1="362.258"
       x2="582.49597"
       y2="370.25101"
       id="line2328"
       style="fill:none;stroke:#000000;stroke-width:0.9429;stroke-miterlimit:10" /><path
       stroke-miterlimit="10"
       d="m 589.571,356.113 c 0,1.217 -0.986,2.203 -2.203,2.203 -1.217,0 -2.203,-0.986 -2.203,-2.203 h 0.005 v -7.378 h 4.397 v 7.378 z"
       id="path2330"
       inkscape:connector-curvature="0"
       style="fill:#9c9b9b;stroke:#1d1d1b;stroke-miterlimit:10" /><path
       stroke-miterlimit="10"
       d="m 593.977,356.113 c 0,1.217 -0.986,2.203 -2.203,2.203 -1.217,0 -2.203,-0.986 -2.203,-2.203 h 0.005 v -7.378 h 4.397 v 7.378 z"
       id="path2332"
       inkscape:connector-curvature="0"
       style="fill:#9c9b9b;stroke:#1d1d1b;stroke-miterlimit:10" /><path
       stroke-miterlimit="10"
       d="m 598.384,356.113 c 0,1.217 -0.986,2.203 -2.203,2.203 -1.217,0 -2.203,-0.986 -2.203,-2.203 h 0.005 v -7.378 h 4.397 v 7.378 z"
       id="path2334"
       inkscape:connector-curvature="0"
       style="fill:#9c9b9b;stroke:#1d1d1b;stroke-miterlimit:10" /><path
       stroke-miterlimit="10"
       d="m 580.759,356.113 c 0,1.217 -0.986,2.203 -2.203,2.203 -1.217,0 -2.203,-0.986 -2.203,-2.203 h 0.005 v -7.378 h 4.397 v 7.378 z"
       id="path2336"
       inkscape:connector-curvature="0"
       style="fill:#9c9b9b;stroke:#1d1d1b;stroke-miterlimit:10" /><path
       stroke-miterlimit="10"
       d="m 585.165,356.113 c 0,1.217 -0.986,2.203 -2.203,2.203 -1.217,0 -2.203,-0.986 -2.203,-2.203 h 0.005 v -7.378 h 4.397 v 7.378 z"
       id="path2338"
       inkscape:connector-curvature="0"
       style="fill:#9c9b9b;stroke:#1d1d1b;stroke-miterlimit:10" /></g></svg>